<svg xmlns="http://www.w3.org/2000/svg" width="1000" height="1000" fill="none"><g clip-path="url(#a)"><path fill="#B9B9B9" d="M1001.25-1.253H-1.252V1001.25H1001.25V-1.253z"/><path fill="#737373" fill-rule="evenodd" d="M518.299 434.397c-5.835 0-10.566 4.731-10.566 10.566v38.02c0 5.835 4.731 10.565 10.566 10.565h38.013c5.835 0 10.565-4.73 10.565-10.565v-48.586h-48.578zm48.577 83.309v47.923h-47.914c-6.202 0-11.23-5.029-11.23-11.231 0-26.463 21.453-47.92 47.916-47.92 6.201 0 11.228 5.027 11.228 11.228zm-72.104 37.377c0 5.835-4.731 10.566-10.566 10.566h-48.578v-48.586c0-5.835 4.73-10.565 10.565-10.565h38.013c5.835 0 10.566 4.73 10.566 10.565v38.02zm-59.109-72.784v-47.922h47.914c6.202 0 11.23 5.029 11.23 11.231 0 26.463-21.452 47.92-47.915 47.92-6.201 0-11.229-5.027-11.229-11.229z" clip-rule="evenodd"/></g><defs><clipPath id="a"><path fill="#fff" d="M0 0h1000v1000H0z"/></clipPath></defs></svg>